<?xml version="1.0" encoding="UTF-8" standalone="no"?>
<svg
   inkscape:export-ydpi="96"
   inkscape:export-xdpi="96"
   inkscape:export-filename="logoFAV.png"
   width="339.96683mm"
   height="339.96683mm"
   viewBox="0 0 339.96683 339.96683"
   version="1.1"
   id="svg8"
   inkscape:version="1.2.2 (732a01da63, 2022-12-09)"
   sodipodi:docname="favicon.svg"
   xmlns:inkscape="http://www.inkscape.org/namespaces/inkscape"
   xmlns:sodipodi="http://sodipodi.sourceforge.net/DTD/sodipodi-0.dtd"
   xmlns:xlink="http://www.w3.org/1999/xlink"
   xmlns="http://www.w3.org/2000/svg"
   xmlns:svg="http://www.w3.org/2000/svg"
   xmlns:rdf="http://www.w3.org/1999/02/22-rdf-syntax-ns#"
   xmlns:cc="http://creativecommons.org/ns#"
   xmlns:dc="http://purl.org/dc/elements/1.1/">
  <defs
     id="defs2">
    <linearGradient
       inkscape:collect="always"
       id="linearGradient1047">
      <stop
         style="stop-color:#ffffff;stop-opacity:1"
         offset="0"
         id="stop1043" />
      <stop
         style="stop-color:#ffffcd;stop-opacity:1"
         offset="1"
         id="stop1045" />
    </linearGradient>
    <radialGradient
       inkscape:collect="always"
       xlink:href="#linearGradient1047"
       id="radialGradient871"
       gradientUnits="userSpaceOnUse"
       gradientTransform="matrix(1.5926002,0,0,1.5926002,928.2323,299.67507)"
       cx="148.95499"
       cy="105.71056"
       fx="148.95499"
       fy="105.71056"
       r="23.911322" />
    <linearGradient
       inkscape:collect="always"
       id="linearGradient1158">
      <stop
         style="stop-color:#fed501;stop-opacity:1;"
         offset="0"
         id="stop1154" />
      <stop
         style="stop-color:#ff7b00;stop-opacity:1"
         offset="1"
         id="stop1156" />
    </linearGradient>
    <linearGradient
       y2="1821.3469"
       x2="1890.7455"
       y1="1751.3185"
       x1="1648.8535"
       gradientTransform="matrix(0.77235756,0,0,0.77235756,354.92506,1346.6283)"
       gradientUnits="userSpaceOnUse"
       id="linearGradient1225"
       xlink:href="#linearGradient1158"
       inkscape:collect="always" />
  </defs>
  <sodipodi:namedview
     id="base"
     pagecolor="#ffffff"
     bordercolor="#666666"
     borderopacity="1.0"
     inkscape:pageopacity="0.0"
     inkscape:pageshadow="2"
     inkscape:zoom="0.24748737"
     inkscape:cx="-44.446712"
     inkscape:cy="1044.4977"
     inkscape:document-units="mm"
     inkscape:current-layer="layer1"
     inkscape:document-rotation="0"
     showgrid="false"
     inkscape:window-width="1920"
     inkscape:window-height="1001"
     inkscape:window-x="-9"
     inkscape:window-y="-9"
     inkscape:window-maximized="1"
     inkscape:showpageshadow="0"
     inkscape:pagecheckerboard="0"
     inkscape:deskcolor="#d1d1d1" />
  <metadata
     id="metadata5">
    <rdf:RDF>
      <cc:Work
         rdf:about="">
        <dc:format>image/svg+xml</dc:format>
        <dc:type
           rdf:resource="http://purl.org/dc/dcmitype/StillImage" />
        <dc:title />
      </cc:Work>
    </rdf:RDF>
  </metadata>
  <g
     inkscape:label="Шар 1"
     inkscape:groupmode="layer"
     id="layer1"
     transform="translate(43.393185,42.324116)">
    <g
       id="g408"
       transform="translate(-1038.8681,-340.39953)">
      <circle
         r="38.081177"
         cy="468.02985"
         cx="1165.458"
         id="circle859"
         style="fill:url(#radialGradient871);fill-opacity:1;stroke-width:0.250185;stroke-linecap:round;stroke-linejoin:round" />
      <path
         id="path861"
         style="fill:#fed501;fill-opacity:1;stroke:none;stroke-width:2.58946;stroke-linecap:round;stroke-linejoin:round;stroke-miterlimit:4;stroke-dasharray:none;stroke-opacity:1"
         d="m 1165.4582,366.35176 c -56.1875,-2e-4 -101.7364,45.54867 -101.7364,101.73602 0,56.18736 45.5489,101.73625 101.7364,101.73602 56.1875,2.3e-4 101.7364,-45.54866 101.7364,-101.73602 0,-56.18735 -45.5489,-101.73622 -101.7364,-101.73602 z m 0,44.61283 c 31.5489,-3.8e-4 57.1247,25.57435 57.1254,57.12319 4e-4,31.54953 -25.5758,57.12577 -57.1254,57.1254 -31.5496,3.7e-4 -57.1254,-25.57587 -57.125,-57.1254 7e-4,-31.54884 25.5761,-57.12357 57.125,-57.12319 z" />
      <path
         d="m 1190.4638,561.40961 -9.6168,-35.89053 c 39.6473,-10.62296 63.1766,-51.37594 52.552,-91.02314 -10.6239,-39.64642 -51.3759,-63.17384 -91.0223,-52.55011 l -9.6175,-35.89276 c 59.4692,-15.93498 120.5961,19.35669 136.5308,78.82591 15.9348,59.46922 -19.3568,120.59612 -78.8262,136.53063 z"
         style="fill:#342a5f;fill-opacity:1;stroke:none;stroke-width:2.83739;stroke-linecap:round;stroke-linejoin:round;stroke-miterlimit:4;stroke-dasharray:none;stroke-opacity:1"
         id="path863"
         sodipodi:nodetypes="ccsccsc" />
      <path
         sodipodi:nodetypes="ccsccsc"
         id="path865"
         style="fill:#342a5f;fill-opacity:1;stroke:none;stroke-width:2.83739;stroke-linecap:round;stroke-linejoin:round;stroke-miterlimit:4;stroke-dasharray:none;stroke-opacity:1"
         d="m 1198.1574,590.12244 -9.6168,-35.89053 c -39.6471,10.62392 -80.4005,-12.90458 -91.023,-52.55234 -10.6226,-39.64679 12.906,-80.39813 52.5526,-91.02092 l -9.6174,-35.89275 c -59.4693,15.9345 -94.7609,77.06142 -78.8262,136.53063 15.9347,59.46922 77.0616,94.76089 136.5308,78.82591 z" />
      <path
         sodipodi:nodetypes="ccsccsc"
         id="path867"
         style="fill:#015bbb;fill-opacity:1;stroke:none;stroke-width:3.40654;stroke-linecap:round;stroke-linejoin:round;stroke-miterlimit:4;stroke-dasharray:none;stroke-opacity:1"
         d="m 1165.4583,569.76574 v -44.60978 c 49.2792,5.8e-4 89.229,-39.94841 89.2276,-89.22783 -7e-4,-49.27835 -39.9491,-89.22567 -89.2276,-89.22509 V 302.0905 c 73.9167,-2.9e-4 133.838,59.92096 133.838,133.83763 0,73.91666 -59.9213,133.83789 -133.838,133.83761 z" />
      <path
         d="M 1165.4583,634.02717 V 589.4174 c -49.2792,6e-4 -89.229,-39.94841 -89.2276,-89.22782 7e-4,-49.27836 39.9491,-89.22568 89.2276,-89.2251 v -44.61253 c -73.9167,-3e-4 -133.838,59.92095 -133.838,133.83763 0,73.91665 59.9213,133.83788 133.838,133.83759 z"
         style="fill:#015bbb;fill-opacity:1;stroke:none;stroke-width:3.40654;stroke-linecap:round;stroke-linejoin:round;stroke-miterlimit:4;stroke-dasharray:none;stroke-opacity:1"
         id="path869"
         sodipodi:nodetypes="ccsccsc" />
    </g>
  </g>
</svg>
