<?xml version="1.0" encoding="UTF-8" standalone="no"?>
<svg
   sodipodi:docname="logo.svg"
   inkscape:version="1.2.2 (732a01da63, 2022-12-09)"
   id="svg8"
   version="1.1"
   viewBox="0 0 210 297"
   height="297mm"
   width="210mm"
   xmlns:inkscape="http://www.inkscape.org/namespaces/inkscape"
   xmlns:sodipodi="http://sodipodi.sourceforge.net/DTD/sodipodi-0.dtd"
   xmlns="http://www.w3.org/2000/svg"
   xmlns:svg="http://www.w3.org/2000/svg"
   xmlns:rdf="http://www.w3.org/1999/02/22-rdf-syntax-ns#"
   xmlns:cc="http://creativecommons.org/ns#"
   xmlns:dc="http://purl.org/dc/elements/1.1/">
  <defs
     id="defs2" />
  <sodipodi:namedview
     inkscape:window-maximized="1"
     inkscape:window-y="-8"
     inkscape:window-x="1272"
     inkscape:window-height="1017"
     inkscape:window-width="1920"
     showgrid="false"
     inkscape:document-rotation="0"
     inkscape:current-layer="layer1"
     inkscape:document-units="mm"
     inkscape:cy="-137.5"
     inkscape:cx="3253.125"
     inkscape:zoom="0.16"
     inkscape:pageshadow="2"
     inkscape:pageopacity="0.0"
     borderopacity="1.0"
     bordercolor="#666666"
     pagecolor="#ffffff"
     id="base"
     inkscape:showpageshadow="0"
     inkscape:pagecheckerboard="0"
     inkscape:deskcolor="#d1d1d1" />
  <metadata
     id="metadata5">
    <rdf:RDF>
      <cc:Work
         rdf:about="">
        <dc:format>image/svg+xml</dc:format>
        <dc:type
           rdf:resource="http://purl.org/dc/dcmitype/StillImage" />
        <dc:title />
      </cc:Work>
    </rdf:RDF>
  </metadata>
  <g
     id="layer1"
     inkscape:groupmode="layer"
     inkscape:label="Шар 1">
    <path
       id="path1028"
       style="fill:none;fill-opacity:1;stroke:#000000;stroke-width:10;stroke-linecap:round;stroke-linejoin:round;stroke-miterlimit:4;stroke-dasharray:none;stroke-opacity:1"
       d="m 1088.0731,-315.52131 v 89.28344 c 89.518,-0.001 162.0893,72.56631 162.0893,162.084167 10e-4,85.80558 -66.685,155.99433 -151.0507,161.67385 25.4257,-1.09089 49.8763,-5.93174 72.8199,-13.98364 87.5694,-43.93116 135.2723,-144.66574 108.9194,-243.005327 -24.2679,-90.56258 -103.9423,-151.46803 -192.7779,-156.05249 z m 83.8585,399.057817 c 33.1994,-11.65115 63.2316,-30.02145 88.4716,-53.48563 -25.2389,23.46142 -55.2733,41.83484 -88.4716,53.48563 z m 158.4869,-165.4974 c -2.1452,7.08704 -4.5896,14.04421 -7.3246,20.85351 2.7348,-6.80983 5.1796,-13.76595 7.3246,-20.85351 z m -7.4853,21.2478 c -0.8504,2.10692 -1.73,4.1988 -2.635,6.27714 0.9049,-2.07839 1.7847,-4.17017 2.635,-6.27714 z m -2.96,7.02076 c -0.9173,2.08805 -1.8599,4.16221 -2.8314,6.2203 0.9715,-2.05823 1.9142,-4.13212 2.8314,-6.2203 z m -2.9807,6.54069 c -3.1615,6.67301 -6.607,13.18546 -10.3193,19.52232 3.7123,-6.33734 7.1579,-12.84883 10.3193,-19.52232 z m -10.5239,19.86855 c -1.1643,1.98017 -2.3553,3.94279 -3.5714,5.88802 1.2161,-1.94541 2.4071,-3.90766 3.5714,-5.88802 z m -3.8468,6.32985 c -5.198,8.27632 -10.8605,16.231 -16.953,23.82645 6.0924,-7.59602 11.7551,-15.54955 16.953,-23.82645 z m -17.152,24.07347 c -1.4988,1.86379 -3.0223,3.70688 -4.5723,5.52679 1.55,-1.82005 3.0735,-3.66285 4.5723,-5.52679 z m -4.6188,5.58208 c -6.3741,7.47985 -13.1761,14.58378 -20.3677,21.27467 7.1916,-6.69142 13.9936,-13.79424 20.3677,-21.27467 z" />
    <circle
       style="fill:none;fill-opacity:1;stroke:#000000;stroke-width:10;stroke-linecap:round;stroke-linejoin:round;stroke-dasharray:none;stroke-opacity:1"
       id="circle1014"
       cx="1088.0719"
       cy="-64.318291"
       r="108.0532" />
    <path
       id="path1017"
       style="fill:none;fill-opacity:1;stroke:#000000;stroke-width:10;stroke-linecap:round;stroke-linejoin:round;stroke-miterlimit:4;stroke-dasharray:none;stroke-opacity:1"
       d="m 1088.0731,-352.82342 v 96.22307 h 5e-4 v -96.22307 z m -162.93319,185.99278 c -1.5144,1.27472 -3.0136,2.56647 -4.4974,3.87573 1.4839,-1.30912 2.9829,-2.60115 4.4974,-3.87573 z m -5.1914,4.4912 c -1.4276,1.26895 -2.8406,2.55355 -4.239,3.85403 1.3984,-1.30031 2.8114,-2.58525 4.239,-3.85403 z m -4.9408,4.50722 c -1.4168,1.32756 -2.8174,2.67179 -4.2034,4.03128 1.386,-1.35929 2.7866,-2.70392 4.2034,-4.03128 z m -4.7697,4.58473 c -1.4907,1.4713 -2.9639,2.95977 -4.4179,4.46743 1.4541,-1.50751 2.9271,-2.99628 4.4179,-4.46743 z m -4.6163,4.67052 c -4.6784,4.862 -9.1656,9.90851 -13.4467,15.13137 4.2813,-5.22226 8.7681,-10.26993 13.4467,-15.13137 z m -13.4467,15.13137 c -1.3693,1.67049 -2.7152,3.36061 -4.0421,5.06636 1.3271,-1.70561 2.6727,-3.39601 4.0421,-5.06636 z m -4.6912,5.9123 c -1.1102,1.43952 -2.2069,2.8899 -3.2866,4.35374 1.0798,-1.46373 2.1763,-2.91433 3.2866,-4.35374 z m -4.1491,5.5361 c -0.9964,1.36732 -1.9802,2.74368 -2.9497,4.13153 0.9695,-1.38765 1.9533,-2.76441 2.9497,-4.13153 z m -3.8964,5.49682 c -0.9357,1.35833 -1.8576,2.72629 -2.7673,4.10363 0.9097,-1.37712 1.8316,-2.74551 2.7673,-4.10363 z m -3.6933,5.51078 c -0.9104,1.39856 -1.8044,2.8086 -2.6877,4.22609 0.8834,-1.41744 1.7772,-2.82757 2.6877,-4.22609 z m -3.5275,5.57123 c -0.9524,1.54996 -1.8857,3.11267 -2.8055,4.68447 0.9198,-1.57164 1.853,-3.13468 2.8055,-4.68447 z m -3.3538,5.612057 c -3.3275,5.74266 -6.4359,11.62753 -9.3136,17.6444 2.8781,-6.01659 5.9857,-11.90207 9.3136,-17.6444 z m 27.618,17.47387 c -10.4555,35.80277 -11.545,74.83226 -1.1865,113.49333 24.2646,90.565813 103.9407,151.473873 192.77839,156.058693 v -58.92043 c -106.28909,0.001 -192.45399,-86.163873 -192.45279,-192.452853 0,-6.13206 0.3,-12.19334 0.8609,-18.17874 z m -37.5714,1.54048 c -0.7144,1.51706 -1.4197,3.03896 -2.1047,4.57233 0.685,-1.53324 1.3903,-3.05541 2.1047,-4.57233 z m -2.9166,6.42854 c -0.6045,1.38298 -1.2014,2.76991 -1.7818,4.16564 0.5805,-1.39565 1.1772,-2.78274 1.7818,-4.16564 z m -2.6453,6.28024 c -0.5392,1.33074 -1.0688,2.66615 -1.5859,4.00802 0.5172,-1.34177 1.0466,-2.67739 1.5859,-4.00802 z m -2.4355,6.24251 c -0.4989,1.33214 -0.9844,2.67052 -1.4614,4.0132 0.477,-1.34256 0.9625,-2.68118 1.4614,-4.0132 z m -2.2536,6.26215 c -0.4755,1.37989 -0.9343,2.76732 -1.3865,4.15789 0.4523,-1.39055 0.9109,-2.77802 1.3865,-4.15789 z m -2.0831,6.30401 c -0.4729,1.49983 -0.9244,3.00891 -1.3699,4.52066 0.4456,-1.51161 0.897,-3.02097 1.3699,-4.52066 z m -1.9223,6.37894 c -0.5655,1.97469 -1.1069,3.95952 -1.6253,5.95364 0.5185,-1.99408 1.0597,-3.979 1.6253,-5.95364 z m -1.7498,6.41356 c -0.5626,2.18106 -1.095,4.37396 -1.6004,6.57738 0.5055,-2.20337 1.0378,-4.39638 1.6004,-6.57738 z m -1.9182,8.03879 c -0.3749,1.67964 -0.7409,3.36242 -1.0821,5.05447 0.3412,-1.69193 0.7072,-3.37495 1.0821,-5.05447 z m -1.5302,7.3918 c -0.2716,1.41552 -0.5391,2.83227 -0.787,4.25607 0.2479,-1.42379 0.5154,-2.84056 0.787,-4.25607 z m -1.2216,6.87865 c -0.2203,1.34882 -0.4342,2.69966 -0.633,4.05556 0.1988,-1.35586 0.4127,-2.70679 0.633,-4.05556 z m -1.0165,6.79493 c -0.1808,1.33421 -0.3517,2.67143 -0.5116,4.01216 0.16,-1.34066 0.3308,-2.67803 0.5116,-4.01216 z m -0.8299,6.79803002 c -0.1462,1.3529 -0.2783,2.70980998 -0.4031,4.06900998 0.1249,-1.35915 0.2568,-2.71615998 0.4031,-4.06900998 z m -0.647,6.81922998 c -0.1141,1.40984 -0.2088,2.8248 -0.2997,4.24108 0.0909,-1.41614 0.1856,-2.83138 0.2997,-4.24108 z m -0.4656,6.85901 c -0.084,1.55959 -0.1428,3.12577 -0.1984,4.69274 0.0556,-1.56705 0.1144,-3.13308 0.1984,-4.69274 z m -0.2822,6.89622 c -0.062,2.30572 -0.0981,4.61788 -0.0981,6.93859 0,-2.32067 0.0361,-4.63291 0.0981,-6.93859 z m -0.0981,6.93859 c -10e-5,2.42194 0.0415,4.83375 0.109,7.23935 -0.0679,-2.4053 -0.1091,-4.81753 -0.109,-7.23935 z m 0.187,9.28677 c 0.0628,1.74233 0.1373,3.4815 0.2352,5.21467 -0.0985,-1.73305 -0.172,-3.4724 -0.2352,-5.21467 z m 0.3757,7.43624 c 0.114,1.74883 0.2449,3.49276 0.3943,5.23173 -0.1501,-1.73868 -0.2796,-3.48315 -0.3943,-5.23173 z m 0.5612,7.10706 c 0.1875,2.00858 0.3994,4.00962 0.6336,6.00429 -0.2351,-1.99423 -0.4452,-3.99613 -0.6336,-6.00429 z m 0.7457,6.98821 c 1.203,9.91328 2.9836,19.64708 5.2984,29.17289 10e-5,2e-4 4e-4,3.2e-4 5e-4,5.2e-4 -2.3147,-9.52581 -4.0914,-19.2619 -5.2989,-29.17341 z" />
    <path
       id="path1036"
       style="fill:none;fill-opacity:1;stroke:#000000;stroke-width:10;stroke-linecap:round;stroke-linejoin:round;stroke-miterlimit:4;stroke-dasharray:none;stroke-opacity:1"
       d="M 1005.3867,-212.4139 C 906.16651,-178.14426 834.89481,-83.934563 834.89481,26.933237 834.89091,166.76053 948.24641,280.1138 1088.0731,280.1121 v 12.65711 c 30.5354,1.04344 61.7372,-2.33815 92.7819,-10.65671 l -17.4811,-65.23995 c -24.3403,4.89655 -49.5181,7.47924 -75.3008,7.47913 v -37.1321 C 999.23551,182.63455 919.55971,121.72661 895.29521,31.160887 868.83061,-67.613223 917.07701,-168.7959 1005.3867,-212.4139 Z" />
    <path
       id="path1034"
       style="fill:none;fill-opacity:1;stroke:#000000;stroke-width:10;stroke-linecap:round;stroke-linejoin:round;stroke-miterlimit:4;stroke-dasharray:none;stroke-opacity:1"
       d="m 1074.2259,-421.26162 c -26.0883,0.26026 -52.5691,3.77591 -78.93469,10.84068 l 17.43919,65.08388 c 24.3531,-4.90193 49.5455,-7.48647 75.3427,-7.48636 v 37.30211 c 88.8357,4.58446 168.51,65.48982 192.7779,156.05249 26.3529,98.339677 -21.3499,199.074127 -108.9194,243.005327 98.6094,-34.60637 169.3229,-128.50887 169.3198,-238.941487 0,-139.82427 -113.3535,-253.17276 -253.1783,-253.17111 v -12.50156 c -4.6024,-0.15727 -9.2173,-0.23016 -13.8472,-0.18397 z" />
    <path
       d="M 1088.0729,224.35158 V 97.773847 c 139.8269,0.002 253.1822,-113.35139 253.1783,-253.178957 0,-139.82455 -113.3533,-253.17282 -253.1783,-253.17117 v -126.58556 c 209.7345,-8.4e-4 379.7577,170.02233 379.7577,379.75673 0,209.734347 -170.0232,379.75752 -379.7577,379.75669 z"
       style="fill:none;fill-opacity:1;stroke:#000000;stroke-width:10;stroke-linecap:round;stroke-linejoin:round;stroke-miterlimit:4;stroke-dasharray:none;stroke-opacity:1"
       id="path1040"
       sodipodi:nodetypes="ccsccsc" />
    <path
       sodipodi:nodetypes="ccsccsc"
       id="path1042"
       style="fill:none;fill-opacity:1;stroke:#000000;stroke-width:10;stroke-linecap:round;stroke-linejoin:round;stroke-miterlimit:4;stroke-dasharray:none;stroke-opacity:1"
       d="M 1088.0729,406.6898 V 280.11208 c -139.82689,0.002 -253.18219,-113.35139 -253.17829,-253.178963 0,-139.824547 113.3533,-253.172817 253.17829,-253.171167 v -126.58556 c -209.73449,-8.4e-4 -379.75769,170.02233 -379.75769,379.756727 0,209.734353 170.0232,379.757523 379.75769,379.756683 z" />
  </g>
</svg>
