<?xml version="1.0" encoding="UTF-8" standalone="no"?>
<svg
   inkscape:export-ydpi="96"
   inkscape:export-xdpi="96"
   inkscape:export-filename="D:\IT snack\заставака\logo.png"
   width="354.85715mm"
   height="354.85715mm"
   viewBox="0 0 354.85715 354.85715"
   version="1.1"
   id="svg8"
   inkscape:version="1.2.2 (732a01da63, 2022-12-09)"
   sodipodi:docname="logo.svg"
   xmlns:inkscape="http://www.inkscape.org/namespaces/inkscape"
   xmlns:sodipodi="http://sodipodi.sourceforge.net/DTD/sodipodi-0.dtd"
   xmlns:xlink="http://www.w3.org/1999/xlink"
   xmlns="http://www.w3.org/2000/svg"
   xmlns:svg="http://www.w3.org/2000/svg"
   xmlns:rdf="http://www.w3.org/1999/02/22-rdf-syntax-ns#"
   xmlns:cc="http://creativecommons.org/ns#"
   xmlns:dc="http://purl.org/dc/elements/1.1/">
  <defs
     id="defs2">
    <linearGradient
       inkscape:collect="always"
       id="linearGradient1047">
      <stop
         style="stop-color:#ffffff;stop-opacity:1"
         offset="0"
         id="stop1043" />
      <stop
         style="stop-color:#ffffcd;stop-opacity:1"
         offset="1"
         id="stop1045" />
    </linearGradient>
    <radialGradient
       inkscape:collect="always"
       xlink:href="#linearGradient1047"
       id="radialGradient871"
       gradientUnits="userSpaceOnUse"
       gradientTransform="matrix(1.5926002,0,0,1.5926002,928.2323,299.67507)"
       cx="148.95499"
       cy="105.71056"
       fx="148.95499"
       fy="105.71056"
       r="23.911322" />
    <linearGradient
       inkscape:collect="always"
       id="linearGradient1158">
      <stop
         style="stop-color:#fed501;stop-opacity:1;"
         offset="0"
         id="stop1154" />
      <stop
         style="stop-color:#ff7b00;stop-opacity:1"
         offset="1"
         id="stop1156" />
    </linearGradient>
    <linearGradient
       y2="1821.3469"
       x2="1890.7455"
       y1="1751.3185"
       x1="1648.8535"
       gradientTransform="matrix(0.77235756,0,0,0.77235756,354.92506,1346.6283)"
       gradientUnits="userSpaceOnUse"
       id="linearGradient1225"
       xlink:href="#linearGradient1158"
       inkscape:collect="always" />
  </defs>
  <sodipodi:namedview
     id="base"
     pagecolor="#ffffff"
     bordercolor="#666666"
     borderopacity="1.0"
     inkscape:pageopacity="0.0"
     inkscape:pageshadow="2"
     inkscape:zoom="0.0875"
     inkscape:cx="2514.2857"
     inkscape:cy="2125.7143"
     inkscape:document-units="mm"
     inkscape:current-layer="layer1"
     inkscape:document-rotation="0"
     showgrid="false"
     inkscape:window-width="1920"
     inkscape:window-height="1017"
     inkscape:window-x="1272"
     inkscape:window-y="-8"
     inkscape:window-maximized="1"
     inkscape:showpageshadow="0"
     inkscape:pagecheckerboard="0"
     inkscape:deskcolor="#d1d1d1" />
  <metadata
     id="metadata5">
    <rdf:RDF>
      <cc:Work
         rdf:about="">
        <dc:format>image/svg+xml</dc:format>
        <dc:type
           rdf:resource="http://purl.org/dc/dcmitype/StillImage" />
        <dc:title />
      </cc:Work>
    </rdf:RDF>
  </metadata>
  <g
     inkscape:label="Шар 1"
     inkscape:groupmode="layer"
     id="layer1"
     transform="translate(73.327377,73.327377)">
    <rect
       inkscape:export-ydpi="96"
       inkscape:export-xdpi="96"
       inkscape:export-filename="C:\Users\user\Desktop\rect1012.png"
       y="290.60123"
       x="988.02979"
       height="354.85715"
       width="1228.7382"
       id="rect857"
       style="fill:#0b0f30;fill-opacity:1;stroke-width:0.99499;stroke-linecap:round;stroke-linejoin:round" />
    <circle
       r="38.081177"
       cy="468.02985"
       cx="1165.458"
       id="circle859"
       style="fill:url(#radialGradient871);fill-opacity:1;stroke-width:0.250185;stroke-linecap:round;stroke-linejoin:round" />
    <path
       id="path861"
       style="fill:#fed501;fill-opacity:1;stroke:none;stroke-width:2.58946;stroke-linecap:round;stroke-linejoin:round;stroke-miterlimit:4;stroke-dasharray:none;stroke-opacity:1"
       d="m 1165.4582,366.35176 c -56.1875,-2e-4 -101.7364,45.54867 -101.7364,101.73602 0,56.18736 45.5489,101.73625 101.7364,101.73602 56.1875,2.3e-4 101.7364,-45.54866 101.7364,-101.73602 0,-56.18735 -45.5489,-101.73622 -101.7364,-101.73602 z m 0,44.61283 c 31.5489,-3.8e-4 57.1247,25.57435 57.1254,57.12319 4e-4,31.54953 -25.5758,57.12577 -57.1254,57.1254 -31.5496,3.7e-4 -57.1254,-25.57587 -57.125,-57.1254 7e-4,-31.54884 25.5761,-57.12357 57.125,-57.12319 z" />
    <path
       d="m 1190.4638,561.40961 -9.6168,-35.89053 c 39.6473,-10.62296 63.1766,-51.37594 52.552,-91.02314 -10.6239,-39.64642 -51.3759,-63.17384 -91.0223,-52.55011 l -9.6175,-35.89276 c 59.4692,-15.93498 120.5961,19.35669 136.5308,78.82591 15.9348,59.46922 -19.3568,120.59612 -78.8262,136.53063 z"
       style="fill:#342a5f;fill-opacity:1;stroke:none;stroke-width:2.83739;stroke-linecap:round;stroke-linejoin:round;stroke-miterlimit:4;stroke-dasharray:none;stroke-opacity:1"
       id="path863"
       sodipodi:nodetypes="ccsccsc" />
    <path
       sodipodi:nodetypes="ccsccsc"
       id="path865"
       style="fill:#342a5f;fill-opacity:1;stroke:none;stroke-width:2.83739;stroke-linecap:round;stroke-linejoin:round;stroke-miterlimit:4;stroke-dasharray:none;stroke-opacity:1"
       d="m 1198.1574,590.12244 -9.6168,-35.89053 c -39.6471,10.62392 -80.4005,-12.90458 -91.023,-52.55234 -10.6226,-39.64679 12.906,-80.39813 52.5526,-91.02092 l -9.6174,-35.89275 c -59.4693,15.9345 -94.7609,77.06142 -78.8262,136.53063 15.9347,59.46922 77.0616,94.76089 136.5308,78.82591 z" />
    <path
       sodipodi:nodetypes="ccsccsc"
       id="path867"
       style="fill:#015bbb;fill-opacity:1;stroke:none;stroke-width:3.40654;stroke-linecap:round;stroke-linejoin:round;stroke-miterlimit:4;stroke-dasharray:none;stroke-opacity:1"
       d="m 1165.4583,569.76574 v -44.60978 c 49.2792,5.8e-4 89.229,-39.94841 89.2276,-89.22783 -7e-4,-49.27835 -39.9491,-89.22567 -89.2276,-89.22509 V 302.0905 c 73.9167,-2.9e-4 133.838,59.92096 133.838,133.83763 0,73.91666 -59.9213,133.83789 -133.838,133.83761 z" />
    <path
       d="M 1165.4583,634.02717 V 589.4174 c -49.2792,6e-4 -89.229,-39.94841 -89.2276,-89.22782 7e-4,-49.27836 39.9491,-89.22568 89.2276,-89.2251 v -44.61253 c -73.9167,-3e-4 -133.838,59.92095 -133.838,133.83763 0,73.91665 59.9213,133.83788 133.838,133.83759 z"
       style="fill:#015bbb;fill-opacity:1;stroke:none;stroke-width:3.40654;stroke-linecap:round;stroke-linejoin:round;stroke-miterlimit:4;stroke-dasharray:none;stroke-opacity:1"
       id="path869"
       sodipodi:nodetypes="ccsccsc" />
    <g
       inkscape:export-filename="C:\Users\user\Desktop\text1580.png"
       transform="translate(1037.3946,21.172723)"
       inkscape:export-ydpi="96"
       inkscape:export-xdpi="96"
       style="font-size:210.01px;line-height:1.25;font-family:EchoRevival;-inkscape-font-specification:EchoRevival;letter-spacing:0px;fill:#ffbd00;fill-opacity:1;stroke-width:5.25022"
       id="text1580"
       aria-label="IT snack">
      <path
         id="path947"
         style="font-style:normal;font-variant:normal;font-weight:normal;font-stretch:normal;font-family:'SF Atarian System';-inkscape-font-specification:'SF Atarian System';letter-spacing:0px;fill:#ffbd00;fill-opacity:1;stroke-width:5.25022"
         d="m 347.72664,387.20486 -25.2012,143.50683 h -24.50116 l 25.2012,-143.50683 z" />
      <path
         id="path949"
         style="letter-spacing:0px;fill:#ffbd00;fill-opacity:1;stroke-width:5.25022"
         d="m 435.2855,387.20486 -4.2002,24.50117 h -28.00134 l -21.001,119.00566 H 357.5818 l 21.001,-119.00566 h -28.00134 l 4.2002,-24.50117 z" />
      <path
         id="path951"
         style="font-style:normal;font-variant:normal;font-weight:normal;font-stretch:normal;font-family:'SF Atarian System';-inkscape-font-specification:'SF Atarian System';letter-spacing:0px;fill:#ffbd00;fill-opacity:1;stroke-width:5.25022"
         d="m 551.73165,443.90756 q 0,2.80013 -0.35002,5.60027 h -20.12595 v -1.22506 q 0.35001,-12.77561 -9.97548,-12.77561 -5.95028,0 -10.5005,5.60027 -4.55021,5.42526 -4.55021,11.37554 0,4.37521 2.97514,7.35035 2.97514,2.97514 7.17534,2.97514 12.25058,0 19.60093,8.22539 7.35035,8.22539 7.35035,20.47598 0,15.05071 -11.90057,27.12629 -11.90056,12.07557 -26.95128,12.07557 -12.25058,0 -19.60093,-8.22539 -7.35035,-8.22539 -7.35035,-20.47597 0,-2.80014 0.35002,-5.60027 h 20.12595 v 1.22506 q -0.35001,12.77561 9.97548,12.77561 5.95028,0 10.5005,-5.42526 4.55022,-5.60027 4.55022,-11.55055 0,-4.37521 -2.97515,-7.35035 -2.97514,-2.97514 -7.17534,-2.97514 -12.07557,0 -19.60093,-8.57541 -7.35035,-8.05038 -7.35035,-20.30097 0,-14.87571 11.90057,-26.95128 12.07557,-12.07557 26.95128,-12.07557 12.25058,0 19.60093,8.22539 7.35035,8.22539 7.35035,20.47597 z" />
      <path
         id="path953"
         style="font-style:normal;font-variant:normal;font-weight:normal;font-stretch:normal;font-family:'SF Atarian System';-inkscape-font-specification:'SF Atarian System';letter-spacing:0px;fill:#ffbd00;fill-opacity:1;stroke-width:5.25022"
         d="M 636.49586,415.2062 618.47,517.76108 q -0.87504,5.07524 -5.25025,9.10043 -4.2002,3.85018 -9.27544,3.85018 -7.35035,0 -10.32549,-12.25058 l -11.55055,-48.65232 -10.67551,60.9029 h -20.30097 l 18.02586,-102.55488 q 0.87504,-5.07524 5.07524,-8.92542 4.37521,-4.02519 9.45045,-4.02519 7.35035,0 10.32549,12.25058 l 11.55055,48.65231 10.67551,-60.90289 z" />
      <path
         id="path955"
         style="font-style:normal;font-variant:normal;font-weight:normal;font-stretch:normal;font-family:'SF Atarian System';-inkscape-font-specification:'SF Atarian System';letter-spacing:0px;fill:#ffbd00;fill-opacity:1;stroke-width:5.25022"
         d="m 701.6591,530.71169 h -21.17601 l -2.45011,-25.2012 h -28.70137 l -11.72556,25.2012 h -21.001 l 47.07724,-103.0799 q 5.77528,-12.42559 15.75075,-12.42559 10.15049,0 11.37555,12.42559 z m -25.90123,-45.50216 -3.15015,-30.62646 -14.00067,30.62646 z" />
      <path
         id="path957"
         style="font-style:normal;font-variant:normal;font-weight:normal;font-stretch:normal;font-family:'SF Atarian System';-inkscape-font-specification:'SF Atarian System';letter-spacing:0px;fill:#ffbd00;fill-opacity:1;stroke-width:5.25022"
         d="m 781.84026,443.90756 q 0,2.80013 -0.35001,5.60027 h -20.12596 v -1.40007 q 0.35002,-12.6006 -9.97548,-12.6006 -5.07524,0 -9.45045,3.67518 -4.2002,3.67517 -5.07524,8.5754 l -8.75041,50.4024 q -0.17501,1.05005 -0.17501,1.92509 0,4.37521 2.97514,7.35035 2.97514,2.97515 7.17534,2.97515 10.85052,0 15.05072,-14.00067 h 20.12595 q -2.97514,14.00067 -13.65064,23.80113 -11.20054,10.5005 -25.0262,10.5005 -11.37554,0 -19.42592,-8.05038 -7.87538,-8.05038 -7.87538,-19.42593 0,-2.45011 0.52503,-5.07524 l 8.75042,-50.4024 q 2.2751,-12.7756 13.82565,-22.57607 11.55055,-9.97547 24.50117,-9.97547 12.25058,0 19.60093,8.22539 7.35035,8.22539 7.35035,20.47597 z" />
      <path
         id="path959"
         style="font-style:normal;font-variant:normal;font-weight:normal;font-stretch:normal;font-family:'SF Atarian System';-inkscape-font-specification:'SF Atarian System';letter-spacing:0px;fill:#ffbd00;fill-opacity:1;stroke-width:5.25022"
         d="m 867.65452,415.2062 -37.62679,57.75274 17.32582,57.75275 H 825.1275 q -15.57575,-51.80246 -15.57575,-56.8777 0,-3.67518 6.65032,-13.82566 l 29.4014,-44.80213 z m -45.85218,0 -20.30097,115.50549 H 781.20041 L 801.50137,415.2062 Z" />
    </g>
  </g>
</svg>
